<?xml version="1.0" encoding="UTF-8" standalone="no"?>
<!-- Created with Inkscape (http://www.inkscape.org/) -->

<svg
   xmlns:dc="http://purl.org/dc/elements/1.1/"
   xmlns:cc="http://creativecommons.org/ns#"
   xmlns:rdf="http://www.w3.org/1999/02/22-rdf-syntax-ns#"
   xmlns:svg="http://www.w3.org/2000/svg"
   xmlns="http://www.w3.org/2000/svg"
   xmlns:sodipodi="http://sodipodi.sourceforge.net/DTD/sodipodi-0.dtd"
   xmlns:inkscape="http://www.inkscape.org/namespaces/inkscape"
   width="1700mm"
   height="1275mm"
   viewBox="0 0 1700 1275"
   version="1.1"
   id="svg8"
   inkscape:version="0.92.2 5c3e80d, 2017-08-06"
   sodipodi:docname="promo1-43.svg"
   inkscape:export-filename="/home/mokush/dev/nudgeti/artwork/promo/promo1-43.png"
   inkscape:export-xdpi="25.400002"
   inkscape:export-ydpi="25.400002">
  <defs
     id="defs2">
    <filter
       inkscape:collect="always"
       style="color-interpolation-filters:sRGB"
       id="filter1053"
       x="-0.022595495"
       width="1.045191"
       y="-0.088503826"
       height="1.1770077">
      <feGaussianBlur
         inkscape:collect="always"
         stdDeviation="9.3666547"
         id="feGaussianBlur1055" />
    </filter>
  </defs>
  <sodipodi:namedview
     id="base"
     pagecolor="#ffe5c2"
     bordercolor="#666666"
     borderopacity="1.0"
     inkscape:pageopacity="1"
     inkscape:pageshadow="2"
     inkscape:zoom="0.0875"
     inkscape:cx="2672.0191"
     inkscape:cy="2181.8328"
     inkscape:document-units="mm"
     inkscape:current-layer="layer1"
     showgrid="false"
     inkscape:window-width="1884"
     inkscape:window-height="1051"
     inkscape:window-x="36"
     inkscape:window-y="0"
     inkscape:window-maximized="1">
    <inkscape:grid
       type="xygrid"
       id="grid854" />
  </sodipodi:namedview>
  <metadata
     id="metadata5">
    <rdf:RDF>
      <cc:Work
         rdf:about="">
        <dc:format>image/svg+xml</dc:format>
        <dc:type
           rdf:resource="http://purl.org/dc/dcmitype/StillImage" />
        <dc:title></dc:title>
      </cc:Work>
    </rdf:RDF>
  </metadata>
  <g
     inkscape:label="Layer 1"
     inkscape:groupmode="layer"
     id="layer1"
     transform="translate(0,978)">
    <g
       transform="matrix(2.5293932,0,0,2.5293932,132.71377,-1991.9761)"
       id="g901">
      <g
         inkscape:label="Layer 1"
         id="layer1-3"
         transform="matrix(1.0963752,0,0,1.0963752,16.168167,-146.91235)">
        <path
           inkscape:connector-curvature="0"
           style="opacity:1;fill:#7ba381;fill-opacity:1;stroke:none;stroke-width:0.93957257;stroke-miterlimit:4;stroke-dasharray:none;stroke-opacity:1"
           d="M 16.814453,14 C 15.255339,14 14,15.255339 14,16.814453 V 111.18555 C 14,112.74466 15.255339,114 16.814453,114 H 111.18555 C 112.74466,114 114,112.74466 114,111.18555 V 29.775391 A 14.76448,14.76448 0 0 1 112.0918,29.917969 14.76448,14.76448 0 0 1 97.328125,15.152344 14.76448,14.76448 0 0 1 97.386719,14 Z m 67.582031,20.146484 c 1.166667,0 2.179905,0.359809 3.041016,1.082032 0.861111,0.722222 1.291016,1.737413 1.291016,3.042968 v 49.707032 c 0,1.805555 -0.541667,3.237413 -1.625,4.292968 -1.055556,1.055556 -2.347223,1.582032 -3.875,1.582032 -0.972223,0 -2.013889,-0.276476 -3.125,-0.832032 -1.111112,-0.555555 -2.012587,-1.320746 -2.707032,-2.292968 l -29.417968,-42.25 v 41.292968 c 0,1.277778 -0.443143,2.277778 -1.332032,3 -0.861111,0.722223 -1.876302,1.082032 -3.042968,1.082032 -1.166667,0 -2.179905,-0.346572 -3.041016,-1.041016 -0.861111,-0.722222 -1.291016,-1.73546 -1.291016,-3.041016 V 40.0625 c 0,-1.805556 0.5,-3.23546 1.5,-4.291016 1,-1.055555 2.25,-1.583984 3.75,-1.583984 1.055556,0 2.138889,0.278429 3.25,0.833984 1.111112,0.555556 2.041016,1.36046 2.791016,2.416016 l 29.5,42.541016 V 38.271484 c 0,-1.277777 0.429904,-2.277777 1.291016,-3 0.861111,-0.75 1.876302,-1.125 3.042968,-1.125 z"
           id="rect829"
           transform="translate(63.580357,669.91394)" />
        <circle
           r="9.9430513"
           cy="685.06665"
           cx="175.67253"
           id="circle837"
           style="opacity:1;fill:#40798c;fill-opacity:1;stroke:none;stroke-width:0.79669672;stroke-miterlimit:4;stroke-dasharray:none;stroke-opacity:1" />
      </g>
      <text
         id="text866"
         y="680.09583"
         x="241.95976"
         style="font-style:normal;font-weight:normal;font-size:54.57620239px;line-height:34.1101265px;font-family:sans-serif;letter-spacing:0px;word-spacing:0px;fill:#1e1e1e;fill-opacity:1;stroke:none;stroke-width:1.36440504px;stroke-linecap:butt;stroke-linejoin:miter;stroke-opacity:1"
         xml:space="preserve"><tspan
           style="font-style:normal;font-variant:normal;font-weight:normal;font-stretch:normal;font-size:65.49143982px;font-family:Roboto;-inkscape-font-specification:Roboto;letter-spacing:0px;fill:#1e1e1e;fill-opacity:1;stroke-width:1.36440504px"
           y="680.09583"
           x="241.95976"
           id="tspan864"
           sodipodi:role="line">Nudgeti</tspan></text>
    </g>
    <g
       id="g1007"
       transform="translate(1139.2794,1294.4225)">
      <path
         sodipodi:nodetypes="ssccsss"
         inkscape:connector-curvature="0"
         id="rect852"
         d="m 439.63768,-563.67202 c -21.70748,0 -39.1835,17.47537 -39.1835,39.18285 v 98.05935 H 1672.1669 v -98.05935 c 0,-21.70748 -17.4753,-39.18285 -39.1828,-39.18285 z"
         style="opacity:1;fill:#363636;fill-opacity:1;stroke:none;stroke-width:1.03890884;stroke-linecap:round;stroke-miterlimit:4;stroke-dasharray:none;stroke-opacity:0.13389121" />
      <path
         inkscape:connector-curvature="0"
         id="rect867"
         d="m 400.45418,-426.42982 v 735.88991 c 0,21.70751 17.47602,39.1835 39.1835,39.1835 H 1632.9834 c 21.7075,0 39.1835,-17.47599 39.1835,-39.1835 v -735.88991 z"
         style="opacity:1;fill:#e9ebee;fill-opacity:1;stroke:none;stroke-width:1.03890884;stroke-linecap:round;stroke-miterlimit:4;stroke-dasharray:none;stroke-opacity:0.13389121" />
      <circle
         r="19.591602"
         cy="-495.0509"
         cx="489.94223"
         id="path872"
         style="opacity:1;fill:#d55205;fill-opacity:1;stroke:none;stroke-width:0.92558748;stroke-linecap:round;stroke-miterlimit:4;stroke-dasharray:none;stroke-opacity:0.13389121" />
      <circle
         style="opacity:1;fill:#f79516;fill-opacity:1;stroke:none;stroke-width:0.92558748;stroke-linecap:round;stroke-miterlimit:4;stroke-dasharray:none;stroke-opacity:0.13389121"
         id="circle882"
         cx="566.95593"
         cy="-495.0509"
         r="19.591602" />
      <circle
         r="19.591602"
         cy="-495.0509"
         cx="643.9696"
         id="circle884"
         style="opacity:1;fill:#2dcb6d;fill-opacity:1;stroke:none;stroke-width:0.92558748;stroke-linecap:round;stroke-miterlimit:4;stroke-dasharray:none;stroke-opacity:0.13389121" />
      <path
         inkscape:connector-curvature="0"
         id="path886"
         d="m 400.45399,-426.42962 v 109.59624 H 1672.1667 v -109.59624 z"
         style="opacity:0.10800003;fill:#4267b2;fill-opacity:1;stroke:none;stroke-width:1.03890884;stroke-linecap:round;stroke-miterlimit:4;stroke-dasharray:none;stroke-opacity:0.13389121" />
    </g>
    <g
       id="g1019"
       transform="matrix(0.50382661,0,0,0.50382661,181.61486,-694.61074)">
      <path
         id="rect969"
         d="m 1807.946,-348.58337 h 934.8873 c 16.62,0 30,13.38 30,30 v 194 c 0,16.62 -13.38,29.999996 -30,29.999996 H 1807.946 c -16.62,0 -30,-13.379996 -30,-29.999996 v -194 c 0,-16.62 13.38,-30 30,-30 z"
         style="opacity:1;fill:#cccccc;fill-opacity:1;stroke:none;stroke-width:0.61154741;stroke-linecap:round;stroke-miterlimit:4;stroke-dasharray:none;stroke-opacity:0.13389121;filter:url(#filter1053)"
         inkscape:connector-curvature="0" />
      <path
         id="rect891"
         d="m 1807.946,-348.58337 h 934.8873 c 16.62,0 30,13.38 30,30 v 194 c 0,16.62 -13.38,29.999996 -30,29.999996 H 1807.946 c -16.62,0 -30,-13.379996 -30,-29.999996 v -194 c 0,-16.62 13.38,-30 30,-30 z"
         style="opacity:1;fill:#eff0f0;fill-opacity:1;stroke:none;stroke-width:0.61154741;stroke-linecap:round;stroke-miterlimit:4;stroke-dasharray:none;stroke-opacity:0.13389121"
         inkscape:connector-curvature="0" />
      <text
         id="text895"
         y="-254.03389"
         x="1851.8428"
         style="font-style:normal;font-variant:normal;font-weight:500;font-stretch:normal;font-size:63.5px;line-height:48.04135895px;font-family:'Noto Sans';-inkscape-font-specification:'Noto Sans Medium';letter-spacing:0px;word-spacing:0px;fill:#333333;fill-opacity:1;stroke:none;stroke-width:1.92165434px;stroke-linecap:butt;stroke-linejoin:miter;stroke-opacity:1"
         xml:space="preserve"><tspan
           style="font-style:normal;font-variant:normal;font-weight:500;font-stretch:normal;font-size:63.5px;font-family:'Noto Sans';-inkscape-font-specification:'Noto Sans Medium';fill:#333333;fill-opacity:1;stroke-width:1.92165434px"
           y="-254.03389"
           x="1851.8428"
           id="tspan893"
           sodipodi:role="line">Nudgeti</tspan></text>
      <text
         id="text905"
         y="-189.28593"
         x="1856.3633"
         style="font-style:normal;font-weight:normal;font-size:50.79162979px;line-height:31.74476814px;font-family:sans-serif;letter-spacing:0px;word-spacing:0px;fill:#333333;fill-opacity:1;stroke:none;stroke-width:1.26979065px;stroke-linecap:butt;stroke-linejoin:miter;stroke-opacity:1"
         xml:space="preserve"><tspan
           style="font-style:normal;font-variant:normal;font-weight:normal;font-stretch:normal;font-size:42.33333206px;line-height:47.625px;font-family:'Noto Sans';-inkscape-font-specification:'Noto Sans';fill:#333333;fill-opacity:1;stroke-width:1.26979065px"
           y="-189.28593"
           x="1856.3633"
           id="tspan903"
           sodipodi:role="line">You spent more than 2 minutes </tspan><tspan
           id="tspan907"
           style="font-style:normal;font-variant:normal;font-weight:normal;font-stretch:normal;font-size:42.33333206px;line-height:47.625px;font-family:'Noto Sans';-inkscape-font-specification:'Noto Sans';fill:#333333;fill-opacity:1;stroke-width:1.26979065px"
           y="-141.66093"
           x="1856.3633"
           sodipodi:role="line">on nudgeti.com.</tspan></text>
      <g
         inkscape:label="Layer 1"
         id="g913"
         transform="matrix(1.3602491,0,0,1.3602491,2462.3355,-1219.2023)">
        <path
           inkscape:connector-curvature="0"
           style="opacity:1;fill:#7ba381;fill-opacity:1;stroke:none;stroke-width:0.93957257;stroke-miterlimit:4;stroke-dasharray:none;stroke-opacity:1"
           d="M 16.814453,14 C 15.255339,14 14,15.255339 14,16.814453 V 111.18555 C 14,112.74466 15.255339,114 16.814453,114 H 111.18555 C 112.74466,114 114,112.74466 114,111.18555 V 29.775391 A 14.76448,14.76448 0 0 1 112.0918,29.917969 14.76448,14.76448 0 0 1 97.328125,15.152344 14.76448,14.76448 0 0 1 97.386719,14 Z m 67.582031,20.146484 c 1.166667,0 2.179905,0.359809 3.041016,1.082032 0.861111,0.722222 1.291016,1.737413 1.291016,3.042968 v 49.707032 c 0,1.805555 -0.541667,3.237413 -1.625,4.292968 -1.055556,1.055556 -2.347223,1.582032 -3.875,1.582032 -0.972223,0 -2.013889,-0.276476 -3.125,-0.832032 -1.111112,-0.555555 -2.012587,-1.320746 -2.707032,-2.292968 l -29.417968,-42.25 v 41.292968 c 0,1.277778 -0.443143,2.277778 -1.332032,3 -0.861111,0.722223 -1.876302,1.082032 -3.042968,1.082032 -1.166667,0 -2.179905,-0.346572 -3.041016,-1.041016 -0.861111,-0.722222 -1.291016,-1.73546 -1.291016,-3.041016 V 40.0625 c 0,-1.805556 0.5,-3.23546 1.5,-4.291016 1,-1.055555 2.25,-1.583984 3.75,-1.583984 1.055556,0 2.138889,0.278429 3.25,0.833984 1.111112,0.555556 2.041016,1.36046 2.791016,2.416016 l 29.5,42.541016 V 38.271484 c 0,-1.277777 0.429904,-2.277777 1.291016,-3 0.861111,-0.75 1.876302,-1.125 3.042968,-1.125 z"
           id="path909"
           transform="translate(63.580357,669.91394)" />
        <circle
           r="9.9430513"
           cy="685.06665"
           cx="175.67253"
           id="circle911"
           style="opacity:1;fill:#40798c;fill-opacity:1;stroke:none;stroke-width:0.79669672;stroke-miterlimit:4;stroke-dasharray:none;stroke-opacity:1" />
      </g>
    </g>
  </g>
</svg>
