<?xml version="1.0" encoding="UTF-8" standalone="no"?>
<!-- Created with Inkscape (http://www.inkscape.org/) -->

<svg
   xmlns:dc="http://purl.org/dc/elements/1.1/"
   xmlns:cc="http://creativecommons.org/ns#"
   xmlns:rdf="http://www.w3.org/1999/02/22-rdf-syntax-ns#"
   xmlns:svg="http://www.w3.org/2000/svg"
   xmlns="http://www.w3.org/2000/svg"
   xmlns:sodipodi="http://sodipodi.sourceforge.net/DTD/sodipodi-0.dtd"
   xmlns:inkscape="http://www.inkscape.org/namespaces/inkscape"
   width="920"
   height="680"
   id="svg2"
   version="1.1"
   inkscape:version="0.92.2 5c3e80d, 2017-08-06"
   sodipodi:docname="nudgeti-tile-large.svg"
   inkscape:export-filename="/home/mokush/dev/nudgeti/artwork/nudgeti-tile-large.png"
   inkscape:export-xdpi="96"
   inkscape:export-ydpi="96">
  <defs
     id="defs4" />
  <sodipodi:namedview
     id="base"
     pagecolor="#ffffff"
     bordercolor="#666666"
     borderopacity="1.0"
     inkscape:pageopacity="0.0"
     inkscape:pageshadow="2"
     inkscape:zoom="0.24748737"
     inkscape:cx="319.53697"
     inkscape:cy="394.58275"
     inkscape:document-units="px"
     inkscape:current-layer="layer1"
     showgrid="false"
     inkscape:window-width="1884"
     inkscape:window-height="1051"
     inkscape:window-x="36"
     inkscape:window-y="0"
     inkscape:window-maximized="1"
     showguides="true"
     inkscape:guide-bbox="true"
     fit-margin-top="0"
     fit-margin-left="0"
     fit-margin-right="0"
     fit-margin-bottom="0">
    <inkscape:grid
       type="xygrid"
       id="grid3012"
       empspacing="5"
       visible="true"
       enabled="true"
       snapvisiblegridlinesonly="true" />
  </sodipodi:namedview>
  <metadata
     id="metadata7">
    <rdf:RDF>
      <cc:Work
         rdf:about="">
        <dc:format>image/svg+xml</dc:format>
        <dc:type
           rdf:resource="http://purl.org/dc/dcmitype/StillImage" />
        <dc:title />
      </cc:Work>
    </rdf:RDF>
  </metadata>
  <g
     inkscape:label="Layer 1"
     inkscape:groupmode="layer"
     id="layer1"
     transform="translate(-63.580357,-117.91394)">
    <rect
       style="fill:#ffe5c2;fill-opacity:1;fill-rule:nonzero;stroke:none"
       id="rect3784-6"
       width="920"
       height="680"
       x="63.580357"
       y="117.91394" />
    <g
       id="g874"
       transform="translate(-11.428585,6.0684547)">
      <g
         transform="matrix(2.3503717,0,0,2.3503717,-38.260195,-1277.0805)"
         id="g862"
         inkscape:label="Layer 1">
        <path
           transform="translate(63.580357,669.91394)"
           id="path858"
           d="M 16.814453,14 C 15.255339,14 14,15.255339 14,16.814453 V 111.18555 C 14,112.74466 15.255339,114 16.814453,114 H 111.18555 C 112.74466,114 114,112.74466 114,111.18555 V 29.775391 A 14.76448,14.76448 0 0 1 112.0918,29.917969 14.76448,14.76448 0 0 1 97.328125,15.152344 14.76448,14.76448 0 0 1 97.386719,14 Z m 67.582031,20.146484 c 1.166667,0 2.179905,0.359809 3.041016,1.082032 0.861111,0.722222 1.291016,1.737413 1.291016,3.042968 v 49.707032 c 0,1.805555 -0.541667,3.237413 -1.625,4.292968 -1.055556,1.055556 -2.347223,1.582032 -3.875,1.582032 -0.972223,0 -2.013889,-0.276476 -3.125,-0.832032 -1.111112,-0.555555 -2.012587,-1.320746 -2.707032,-2.292968 l -29.417968,-42.25 v 41.292968 c 0,1.277778 -0.443143,2.277778 -1.332032,3 -0.861111,0.722223 -1.876302,1.082032 -3.042968,1.082032 -1.166667,0 -2.179905,-0.346572 -3.041016,-1.041016 -0.861111,-0.722222 -1.291016,-1.73546 -1.291016,-3.041016 V 40.0625 c 0,-1.805556 0.5,-3.23546 1.5,-4.291016 1,-1.055555 2.25,-1.583984 3.75,-1.583984 1.055556,0 2.138889,0.278429 3.25,0.833984 1.111112,0.555556 2.041016,1.36046 2.791016,2.416016 l 29.5,42.541016 V 38.271484 c 0,-1.277777 0.429904,-2.277777 1.291016,-3 0.861111,-0.75 1.876302,-1.125 3.042968,-1.125 z"
           style="opacity:1;fill:#7ba381;fill-opacity:1;stroke:none;stroke-width:0.93957257;stroke-miterlimit:4;stroke-dasharray:none;stroke-opacity:1"
           inkscape:connector-curvature="0" />
        <circle
           style="opacity:1;fill:#40798c;fill-opacity:1;stroke:none;stroke-width:0.79669672;stroke-miterlimit:4;stroke-dasharray:none;stroke-opacity:1"
           id="circle860"
           cx="175.67253"
           cy="685.06665"
           r="9.9430513" />
      </g>
      <text
         xml:space="preserve"
         style="font-style:normal;font-weight:normal;font-size:116.99859619px;line-height:73.12412262px;font-family:sans-serif;letter-spacing:0px;word-spacing:0px;fill:#1e1e1e;fill-opacity:1;stroke:none;stroke-width:2.9249649px;stroke-linecap:butt;stroke-linejoin:miter;stroke-opacity:1"
         x="445.78412"
         y="495.83136"
         id="text867"><tspan
           sodipodi:role="line"
           id="tspan865"
           x="445.78412"
           y="495.83136"
           style="font-style:normal;font-variant:normal;font-weight:normal;font-stretch:normal;font-size:140.39831543px;font-family:Roboto;-inkscape-font-specification:Roboto;letter-spacing:0px;fill:#1e1e1e;fill-opacity:1;stroke-width:2.9249649px">Nudgeti</tspan></text>
    </g>
  </g>
</svg>
